<svg xmlns="http://www.w3.org/2000/svg" width="24.749" height="24.749"><defs><clipPath id="a"><path data-name="Path 3" d="M2-22h27a2 2 0 012 2 2 2 0 01-2 2H2a2 2 0 01-2-2 2 2 0 012-2z" fill="none" clip-rule="evenodd"/></clipPath><clipPath id="b"><path data-name="Path 2" d="M-20 2032h375V-59H-20z" fill="none"/></clipPath><clipPath id="c"><path data-name="Path 9" d="M2-4h27a2 2 0 012 2 2 2 0 01-2 2H2a2 2 0 01-2-2 2 2 0 012-2z" fill="none" clip-rule="evenodd"/></clipPath></defs><g data-name="Group 7"><g data-name="Group 2" transform="rotate(-45 53.016 -.04)" clip-path="url(#a)"><g data-name="Group 1" clip-path="url(#b)"><path data-name="Path 1" d="M-5-27h41v14H-5z" fill="#fff"/></g></g><g data-name="Group 6" transform="rotate(45 -3.414 1.414)" clip-path="url(#c)"><g data-name="Group 5" clip-path="url(#b)"><path data-name="Path 7" d="M-5-9h41V5H-5z" fill="#fff"/></g></g></g></svg>