<svg width="93" height="77" xmlns="http://www.w3.org/2000/svg" xmlns:xlink="http://www.w3.org/1999/xlink"><defs><path id="a" d="M0 0h92.651v76.932H0z"/></defs><g fill="none" fill-rule="evenodd"><mask id="b" fill="#fff"><use xlink:href="#a"/></mask><path d="M78.118 39.651c-.264 1.353-.613 2.506-1.05 3.46-.435.953-.944 1.743-1.525 2.37-.581.626-1.18.94-1.798.94-.708 0-1.316-.15-1.825-.45a3.51 3.51 0 01-1.226-1.199c-.31-.499-.535-1.085-.681-1.757a10.186 10.186 0 01-.218-2.152c0-1.507.145-2.86.436-4.059a14.72 14.72 0 011.199-3.283c.508-.99 1.099-1.802 1.77-2.438.672-.636 1.38-.953 2.126-.953.562 0 1.043.154 1.443.463.4.31.726.726.98 1.253.255.527.446 1.15.573 1.866.127.718.19 1.494.19 2.33 0 1.053-.131 2.256-.394 3.61zm-27.801-.858c-.073 1.58-.427 3.151-1.063 4.712-.817 1.98-1.843 2.97-3.078 2.97-.708 0-1.28-.382-1.716-1.144-.673-1.18-.836-2.924-.49-5.23.163-1.072 1.107-3.116 2.833-6.13 1.598-2.834 3.45-4.25 5.557-4.25l-2.043 9.072zm-.663 21.6l-.285 2.33a9.795 9.795 0 01-.36 1.732 46.657 46.657 0 01-.708 2.356c-.2.59-.422 1.194-.667 1.812-.245.617-.477 1.09-.695 1.417a5.62 5.62 0 01-.763.912 2.426 2.426 0 01-.94.586 3.752 3.752 0 01-1.158.163c-1.217 0-1.525-.863-.926-2.587.726-2.07 1.707-4.109 2.942-6.115 1.235-2.007 2.494-3.464 3.776-4.372l-.216 1.765zM28.21 39.65c-.264 1.353-.613 2.506-1.05 3.46-.435.953-.944 1.743-1.525 2.37-.581.626-1.181.94-1.798.94-.708 0-1.317-.15-1.825-.45a3.51 3.51 0 01-1.226-1.199c-.31-.499-.536-1.085-.681-1.757a10.12 10.12 0 01-.218-2.152c0-1.507.145-2.86.436-4.059a14.72 14.72 0 011.199-3.283c.508-.99 1.098-1.802 1.77-2.438.672-.636 1.38-.953 2.125-.953.563 0 1.044.154 1.444.463.4.31.726.726.98 1.253.255.527.445 1.15.573 1.866.127.718.19 1.494.19 2.33 0 1.053-.132 2.256-.394 3.61zM7.82 23.573l.733-3.692 1.2-3.98c.802-2.653 1.49-4.568 2.067-5.745.576-1.177 1.153-2.11 1.729-2.8.576-.69 1.114-1.036 1.614-1.036.137 0 .219.187.245.563.025.375.039.83.039 1.36-.164 1.667-.547 3.466-1.148 5.398a63.099 63.099 0 01-2.132 5.811 94.599 94.599 0 01-2.61 5.66c-.92 1.831-1.79 3.48-2.61 4.944.094-1.86.384-4.02.873-6.483zm81.658 7.674c-1.135-1.363-2.361-2.493-3.678-3.392a18.405 18.405 0 00-4.236-2.152c-1.508-.536-3.124-.804-4.85-.804-2.015 0-3.831.368-5.448 1.104-1.616.735-2.982 1.743-4.1 3.023-1.116 1.281-1.975 2.79-2.574 4.522-.6 1.735-.9 3.801-.9 6.198 0 .645.04 1.286.106 1.924-2.013 2.94-3.857 5.05-5.527 6.306-.6.453-1.162.833-1.69 1.141.273-2.843.473-5.152.6-6.927.127-1.774.395-3.388.804-4.84.409-1.454.64-2.673.695-3.657.163-3.172.136-5.04-.082-5.606a6.88 6.88 0 00-.354-.793c-.31-.492-.872-.739-1.69-.739l-1.2.028c-.238 0-.448-.009-.631-.028a1.874 1.874 0 01-.491-.11 6.331 6.331 0 00-.354-.124.757.757 0 01-.3-.206 3.404 3.404 0 00-.231-.22 1.703 1.703 0 01-.232-.29 2.654 2.654 0 00-.245-.316c-.436-.533-1.127-.799-2.07-.799-2.09 0-4.242.991-6.457 2.97a16.832 16.832 0 00-3.732 4.808c-.025.048-.05.104-.075.152-.32-.39-.633-.773-.966-1.173-1.136-1.363-2.362-2.493-3.678-3.392a18.405 18.405 0 00-4.236-2.152c-1.508-.536-3.124-.804-4.85-.804-2.015 0-3.832.368-5.448 1.104-1.616.735-2.983 1.743-4.1 3.023-1.117 1.281-1.975 2.79-2.574 4.522-.6 1.735-.9 3.801-.9 6.198 0 1.093.096 2.176.286 3.248-.355.226-.707.453-1.08.675-.54.32-1.065.605-1.577.851-.511.248-.995.444-1.45.591-.455.146-.86.22-1.213.22-.146 0-.301-.105-.465-.316a3.572 3.572 0 01-.464-.852 7.616 7.616 0 01-.37-1.209c-.1-.449-.15-.91-.15-1.387v-.385c.055-.366.128-.74.219-1.126.09-.384.182-.746.273-1.085.092-.339.187-.654.287-.948.1-.293.196-.53.287-.714a112.941 112.941 0 012.744-5.06 348.764 348.764 0 002.96-5.26 157.998 157.998 0 002.833-5.384 59.922 59.922 0 002.393-5.41 39.602 39.602 0 001.643-5.37c.406-1.78.609-3.528.609-5.246 0-.69-.064-1.37-.191-2.036a5.471 5.471 0 00-.66-1.79A3.579 3.579 0 0019.407.481c-.547-.32-1.242-.48-2.082-.48-1.156 0-2.294.33-3.413.992-1.12.662-2.192 1.574-3.22 2.732-1.027 1.16-2.008 2.52-2.943 4.078a46.349 46.349 0 00-2.6 5.033c-.8 1.795-1.594 4.18-2.387 7.151l-1.19 4.458-.786 4.463C.262 31.884 0 34.263 0 36.045c0 2.074.177 4.054.53 5.94.352 1.885.84 3.543 1.465 4.974.624 1.43 1.357 2.57 2.199 3.42.84.848 1.75 1.272 2.727 1.272a9.36 9.36 0 002.048-.246 18.688 18.688 0 002.244-.66 27.039 27.039 0 002.287-.946 70.8 70.8 0 002.202-1.075c.189-.1.38-.219.57-.322a8.69 8.69 0 002.403 2.2c1.135.7 2.502 1.05 4.1 1.05a8.58 8.58 0 003.133-.573 10.446 10.446 0 002.71-1.553 11.63 11.63 0 002.207-2.315 15.334 15.334 0 001.634-2.86 16.677 16.677 0 001.022-3.16c.236-1.09.354-2.17.354-3.243 0-1.47-.132-2.792-.395-3.964a14.57 14.57 0 00-1.185-3.337l.218-.3c.654.436 1.435.977 2.343 1.621a22.484 22.484 0 012.765 2.357c.502.497.988.968 1.462 1.418a64.121 64.121 0 00-1.293 3.54c-1.035 3.033-1.007 5.685.082 7.955.599 1.271 1.494 2.333 2.683 3.187 1.19.854 2.493 1.281 3.91 1.281 1.924 0 3.904-.962 5.939-2.885l-.545 3.24a45.704 45.704 0 00-2.956 2.791c-.827.862-1.875 2.011-3.146 3.446a22.53 22.53 0 00-1.812 2.33c-.591.862-1.017 1.53-1.281 2.002-.263.472-.74 1.307-1.43 2.506-1.2 2.143-1.725 4.168-1.58 6.075.09 1.017.34 1.907.75 2.67.408.763.943 1.357 1.607 1.784a7.62 7.62 0 002.166.954 9.92 9.92 0 002.56.313c1.145 0 2.197-.182 3.16-.545.963-.363 1.789-.835 2.479-1.416a9.785 9.785 0 001.866-2.137 14.937 14.937 0 001.349-2.532c.345-.845.649-1.77.913-2.777a21.65 21.65 0 00.547-2.712c.1-.8.204-1.613.31-2.439.044-.366.11-.887.199-1.564.218-2.344.417-3.943.599-4.797.18-.855.518-1.445 1.008-1.772.78-.527 2.043-1.354 3.786-2.48a9.66 9.66 0 00.382-.244c.908-.703 2.016-1.703 3.323-3 .348-.355.663-.697.954-1.029.073.125.14.255.219.376a8.722 8.722 0 002.792 2.738c1.135.7 2.502 1.05 4.1 1.05a8.58 8.58 0 003.133-.573 10.468 10.468 0 002.71-1.553 11.654 11.654 0 002.207-2.315 15.395 15.395 0 001.635-2.86 16.746 16.746 0 001.02-3.16c.237-1.09.355-2.17.355-3.243 0-1.47-.131-2.792-.395-3.964a14.57 14.57 0 00-1.185-3.337l.218-.3c.654.436 1.435.977 2.343 1.621a22.41 22.41 0 012.765 2.357 91.725 91.725 0 002.656 2.534c.835.762 1.499 1.471 1.989 2.125l.518-3.842a214.743 214.743 0 00-3.174-3.895z" fill="#FFF" mask="url(#b)"/></g></svg>