<?xml version="1.0" encoding="UTF-8"?>
<svg width="93px" height="77px" viewBox="0 0 93 77" version="1.1" xmlns="http://www.w3.org/2000/svg" xmlns:xlink="http://www.w3.org/1999/xlink">
    <title>Group 3</title>
    <defs>
        <polygon id="path-1" points="0 0.0003 92.651 0.0003 92.651 76.9321 0 76.9321"></polygon>
    </defs>
    <g id="Page-1" stroke="none" stroke-width="1" fill="none" fill-rule="evenodd">
        <g id="Home-Desktop" transform="translate(-434.000000, -67.000000)">
            <g id="Group-3" transform="translate(434.000000, 67.000000)">
                <mask id="mask-2" fill="white">
                    <use xlink:href="#path-1"></use>
                </mask>
                <g id="Clip-2"></g>
                <path d="M78.1177,39.6513 C77.8537,41.0043 77.5047,42.1573 77.0687,43.1103 C76.6327,44.0643 76.1237,44.8543 75.5427,45.4813 C74.9617,46.1073 74.3627,46.4213 73.7447,46.4213 C73.0367,46.4213 72.4287,46.2713 71.9197,45.9713 C71.4107,45.6723 71.0027,45.2723 70.6937,44.7723 C70.3847,44.2733 70.1587,43.6873 70.0127,43.0153 C69.8677,42.3433 69.7947,41.6263 69.7947,40.8633 C69.7947,39.3563 69.9397,38.0033 70.2307,36.8043 C70.5207,35.6053 70.9207,34.5113 71.4297,33.5213 C71.9377,32.5313 72.5287,31.7193 73.2007,31.0833 C73.8717,30.4473 74.5797,30.1303 75.3257,30.1303 C75.8877,30.1303 76.3687,30.2843 76.7687,30.5933 C77.1687,30.9023 77.4947,31.3193 77.7497,31.8463 C78.0037,32.3733 78.1947,32.9953 78.3217,33.7123 C78.4487,34.4303 78.5127,35.2063 78.5127,36.0413 C78.5127,37.0953 78.3807,38.2983 78.1177,39.6513 L78.1177,39.6513 Z M50.3167,38.7933 C50.2437,40.3733 49.8897,41.9443 49.2537,43.5053 C48.4367,45.4853 47.4107,46.4753 46.1757,46.4753 C45.4677,46.4753 44.8957,46.0933 44.4597,45.3313 C43.7867,44.1513 43.6237,42.4073 43.9697,40.1003 C44.1327,39.0293 45.0767,36.9853 46.8027,33.9713 C48.4007,31.1373 50.2527,29.7213 52.3597,29.7213 L50.3167,38.7933 Z M49.6537,60.3923 C49.5407,61.3173 49.4457,62.0933 49.3687,62.7223 C49.2927,63.3503 49.1727,63.9283 49.0087,64.4553 C48.7367,65.4363 48.4997,66.2213 48.3007,66.8113 C48.1007,67.4013 47.8787,68.0053 47.6337,68.6233 C47.3887,69.2403 47.1567,69.7133 46.9387,70.0403 C46.7207,70.3663 46.4657,70.6713 46.1757,70.9523 C45.8847,71.2343 45.5717,71.4293 45.2357,71.5383 C44.8997,71.6473 44.5137,71.7013 44.0777,71.7013 C42.8607,71.7013 42.5527,70.8383 43.1517,69.1143 C43.8777,67.0433 44.8587,65.0053 46.0937,62.9993 C47.3287,60.9923 48.5877,59.5353 49.8697,58.6273 C49.8387,58.8783 49.7667,59.4663 49.6537,60.3923 L49.6537,60.3923 Z M28.2097,39.6513 C27.9457,41.0043 27.5967,42.1573 27.1607,43.1103 C26.7247,44.0643 26.2157,44.8543 25.6347,45.4813 C25.0537,46.1073 24.4537,46.4213 23.8367,46.4213 C23.1287,46.4213 22.5197,46.2713 22.0117,45.9713 C21.5027,45.6723 21.0947,45.2723 20.7857,44.7723 C20.4767,44.2733 20.2497,43.6873 20.1047,43.0153 C19.9587,42.3433 19.8867,41.6263 19.8867,40.8633 C19.8867,39.3563 20.0317,38.0033 20.3227,36.8043 C20.6127,35.6053 21.0127,34.5113 21.5217,33.5213 C22.0297,32.5313 22.6197,31.7193 23.2917,31.0833 C23.9637,30.4473 24.6717,30.1303 25.4167,30.1303 C25.9797,30.1303 26.4607,30.2843 26.8607,30.5933 C27.2607,30.9023 27.5867,31.3193 27.8417,31.8463 C28.0957,32.3733 28.2857,32.9953 28.4137,33.7123 C28.5407,34.4303 28.6047,35.2063 28.6047,36.0413 C28.6047,37.0953 28.4717,38.2983 28.2097,39.6513 L28.2097,39.6513 Z M7.8197,23.5733 C8.3087,21.1123 8.5527,19.8823 8.5527,19.8813 C8.5527,19.8803 8.9537,18.5543 9.7537,15.9013 C10.5547,13.2483 11.2427,11.3333 11.8197,10.1563 C12.3957,8.9793 12.9727,8.0453 13.5487,7.3553 C14.1247,6.6653 14.6627,6.3203 15.1627,6.3203 C15.2997,6.3203 15.3817,6.5073 15.4077,6.8833 C15.4327,7.2583 15.4467,7.7123 15.4467,8.2433 C15.2827,9.9103 14.8997,11.7093 14.2987,13.6413 C13.6977,15.5743 12.9867,17.5103 12.1667,19.4523 C11.3467,21.3933 10.4767,23.2803 9.5567,25.1113 C8.6367,26.9433 7.7667,28.5913 6.9467,30.0563 C7.0407,28.1953 7.3307,26.0353 7.8197,23.5733 L7.8197,23.5733 Z M89.4777,31.2473 C88.3427,29.8843 87.1167,28.7543 85.7997,27.8553 C84.4827,26.9563 83.0707,26.2383 81.5637,25.7033 C80.0557,25.1673 78.4397,24.8993 76.7147,24.8993 C74.6987,24.8993 72.8827,25.2673 71.2657,26.0033 C69.6497,26.7383 68.2837,27.7463 67.1657,29.0263 C66.0497,30.3073 65.1907,31.8153 64.5917,33.5483 C63.9927,35.2833 63.6927,37.3493 63.6927,39.7463 C63.6927,40.3913 63.7317,41.0323 63.7977,41.6703 C61.7847,44.6103 59.9407,46.7203 58.2707,47.9763 C57.6717,48.4293 57.1087,48.8093 56.5817,49.1173 C56.8537,46.2743 57.0537,43.9653 57.1807,42.1903 C57.3077,40.4163 57.5757,38.8023 57.9847,37.3493 C58.3937,35.8963 58.6247,34.6773 58.6797,33.6933 C58.8427,30.5213 58.8157,28.6523 58.5977,28.0873 C58.4707,27.7583 58.3527,27.4943 58.2437,27.2943 C57.9347,26.8023 57.3717,26.5553 56.5547,26.5553 L55.3537,26.5833 C55.1157,26.5833 54.9057,26.5743 54.7227,26.5553 C54.5407,26.5373 54.3767,26.5013 54.2317,26.4453 C54.0857,26.3903 53.9687,26.3493 53.8777,26.3213 C53.7867,26.2943 53.6867,26.2253 53.5777,26.1153 C53.4687,26.0053 53.3917,25.9313 53.3467,25.8953 C53.3007,25.8583 53.2237,25.7613 53.1147,25.6053 C53.0057,25.4493 52.9247,25.3443 52.8697,25.2893 C52.4337,24.7563 51.7427,24.4903 50.7997,24.4903 C48.7107,24.4903 46.5577,25.4813 44.3427,27.4603 C42.8177,28.8223 41.5727,30.4253 40.6107,32.2683 C40.5857,32.3163 40.5607,32.3723 40.5357,32.4203 C40.2157,32.0303 39.9027,31.6473 39.5697,31.2473 C38.4337,29.8843 37.2077,28.7543 35.8917,27.8553 C34.5747,26.9563 33.1627,26.2383 31.6557,25.7033 C30.1477,25.1673 28.5317,24.8993 26.8057,24.8993 C24.7907,24.8993 22.9737,25.2673 21.3577,26.0033 C19.7417,26.7383 18.3747,27.7463 17.2577,29.0263 C16.1407,30.3073 15.2827,31.8153 14.6837,33.5483 C14.0837,35.2833 13.7847,37.3493 13.7847,39.7463 C13.7847,40.8393 13.8797,41.9223 14.0697,42.9943 C13.7147,43.2203 13.3627,43.4473 12.9897,43.6693 C12.4497,43.9893 11.9247,44.2743 11.4127,44.5203 C10.9017,44.7683 10.4177,44.9643 9.9627,45.1113 C9.5077,45.2573 9.1027,45.3313 8.7497,45.3313 C8.6037,45.3313 8.4487,45.2263 8.2847,45.0153 C8.1207,44.8053 7.9657,44.5213 7.8207,44.1633 C7.6747,43.8063 7.5517,43.4033 7.4507,42.9543 C7.3507,42.5053 7.3007,42.0443 7.3007,41.5673 L7.3007,41.1823 C7.3557,40.8163 7.4287,40.4413 7.5197,40.0563 C7.6107,39.6723 7.7017,39.3103 7.7927,38.9713 C7.8847,38.6323 7.9797,38.3173 8.0797,38.0233 C8.1797,37.7303 8.2757,37.4923 8.3667,37.3093 C9.2047,35.6613 10.1197,33.9733 11.1107,32.2483 C12.1027,30.5223 13.0887,28.7693 14.0717,26.9883 C15.0527,25.2073 15.9967,23.4133 16.9037,21.6053 C17.8097,19.7973 18.6077,17.9933 19.2967,16.1943 C19.9857,14.3963 20.5337,12.6063 20.9397,10.8253 C21.3457,9.0453 21.5487,7.2973 21.5487,5.5793 C21.5487,4.8883 21.4847,4.2093 21.3577,3.5433 C21.2307,2.8763 21.0107,2.2793 20.6977,1.7533 C20.3847,1.2263 19.9537,0.8023 19.4067,0.4813 C18.8597,0.1603 18.1647,0.0003 17.3247,0.0003 C16.1687,0.0003 15.0307,0.3313 13.9117,0.9933 C12.7927,1.6553 11.7197,2.5673 10.6927,3.7253 C9.6647,4.8843 8.6837,6.2443 7.7487,7.8033 C6.8127,9.3633 5.9467,11.0403 5.1487,12.8363 C4.3497,14.6313 3.5547,17.0153 2.7617,19.9873 C1.9677,22.9593 1.5717,24.4453 1.5717,24.4453 C1.5717,24.4443 1.3097,25.9323 0.7857,28.9083 C0.2617,31.8843 -0.0003,34.2633 -0.0003,36.0453 C-0.0003,38.1193 0.1767,40.0993 0.5297,41.9843 C0.8817,43.8703 1.3707,45.5283 1.9947,46.9593 C2.6187,48.3893 3.3517,49.5283 4.1937,50.3783 C5.0347,51.2273 5.9437,51.6513 6.9207,51.6513 C7.5567,51.6513 8.2397,51.5693 8.9687,51.4053 C9.6977,51.2413 10.4457,51.0213 11.2127,50.7443 C11.9797,50.4683 12.7417,50.1533 13.4997,49.7993 C14.2567,49.4453 14.9907,49.0873 15.7017,48.7243 C15.8907,48.6243 16.0817,48.5053 16.2717,48.4023 C16.9337,49.2813 17.7287,50.0203 18.6747,50.6023 C19.8097,51.3013 21.1767,51.6513 22.7747,51.6513 C23.8817,51.6513 24.9267,51.4603 25.9077,51.0793 C26.8887,50.6973 27.7917,50.1803 28.6177,49.5263 C29.4447,48.8723 30.1797,48.1013 30.8247,47.2113 C31.4697,46.3213 32.0137,45.3673 32.4587,44.3503 C32.9037,43.3333 33.2447,42.2793 33.4807,41.1903 C33.7167,40.1003 33.8347,39.0203 33.8347,37.9483 C33.8347,36.4773 33.7027,35.1563 33.4397,33.9843 C33.1767,32.8133 32.7817,31.7013 32.2547,30.6473 L32.4727,30.3473 C33.1267,30.7833 33.9077,31.3243 34.8157,31.9683 C35.7237,32.6133 36.6447,33.3993 37.5807,34.3253 C38.0827,34.8223 38.5687,35.2933 39.0427,35.7433 C38.6097,36.8263 38.1787,37.9963 37.7497,39.2833 C36.7147,42.3163 36.7427,44.9683 37.8317,47.2383 C38.4307,48.5093 39.3257,49.5713 40.5147,50.4253 C41.7047,51.2793 43.0077,51.7063 44.4247,51.7063 C46.3487,51.7063 48.3287,50.7443 50.3637,48.8213 L49.8187,52.0603 C48.6747,53.0583 47.6887,53.9893 46.8627,54.8523 C46.0357,55.7143 44.9877,56.8633 43.7167,58.2983 C43.0987,58.9883 42.4947,59.7643 41.9047,60.6283 C41.3137,61.4903 40.8877,62.1573 40.6237,62.6303 C40.3607,63.1023 39.8837,63.9373 39.1937,65.1363 C37.9947,67.2793 37.4687,69.3043 37.6137,71.2113 C37.7047,72.2283 37.9547,73.1183 38.3637,73.8803 C38.7717,74.6443 39.3067,75.2383 39.9707,75.6653 C40.6337,76.0913 41.3547,76.4103 42.1367,76.6193 C42.9167,76.8273 43.7707,76.9323 44.6967,76.9323 C45.8417,76.9323 46.8937,76.7503 47.8567,76.3873 C48.8197,76.0243 49.6457,75.5523 50.3357,74.9713 C51.0257,74.3903 51.6477,73.6783 52.2017,72.8343 C52.7557,71.9893 53.2057,71.1463 53.5507,70.3023 C53.8957,69.4573 54.1997,68.5313 54.4637,67.5253 C54.7267,66.5163 54.9097,65.6133 55.0107,64.8133 C55.1117,64.0133 55.2147,63.2003 55.3207,62.3743 C55.3647,62.0083 55.4307,61.4873 55.5197,60.8103 C55.7377,58.4663 55.9367,56.8673 56.1187,56.0133 C56.2997,55.1583 56.6367,54.5683 57.1267,54.2413 C57.9077,53.7143 59.1697,52.8873 60.9127,51.7603 C61.0037,51.7063 61.1317,51.6253 61.2947,51.5173 C62.2027,50.8143 63.3107,49.8143 64.6177,48.5173 C64.9657,48.1623 65.2807,47.8203 65.5717,47.4883 C65.6447,47.6133 65.7117,47.7433 65.7907,47.8643 C66.5167,48.9913 67.4477,49.9033 68.5827,50.6023 C69.7177,51.3013 71.0847,51.6513 72.6827,51.6513 C73.7897,51.6513 74.8347,51.4603 75.8157,51.0793 C76.7967,50.6973 77.6997,50.1803 78.5267,49.5263 C79.3527,48.8723 80.0877,48.1013 80.7327,47.2113 C81.3777,46.3213 81.9217,45.3673 82.3677,44.3503 C82.8117,43.3333 83.1527,42.2793 83.3887,41.1903 C83.6247,40.1003 83.7427,39.0203 83.7427,37.9483 C83.7427,36.4773 83.6117,35.1563 83.3477,33.9843 C83.0847,32.8133 82.6897,31.7013 82.1627,30.6473 L82.3807,30.3473 C83.0347,30.7833 83.8157,31.3243 84.7237,31.9683 C85.6317,32.6133 86.5537,33.3993 87.4887,34.3253 C88.4237,35.2513 89.3097,36.0963 90.1447,36.8593 C90.9797,37.6213 91.6437,38.3303 92.1337,38.9843 L92.6517,35.1423 C91.6707,33.9073 90.6127,32.6093 89.4777,31.2473 L89.4777,31.2473 Z" id="Fill-1" fill="#FFFFFF" mask="url(#mask-2)"></path>
            </g>
        </g>
    </g>
</svg>